<svg width="2463" height="376" viewBox="0 0 2463 376" fill="none" xmlns="http://www.w3.org/2000/svg">
<path d="M2402.78 284.439C2390.43 284.439 2380.4 280.687 2372.68 273.182C2365.21 265.427 2361.48 253.919 2361.48 238.659C2361.48 232.405 2362.51 224.274 2364.57 214.268L2405.87 26.2677L2463 18.7627L2418.61 221.397C2417.58 225.15 2417.07 228.777 2417.07 232.28C2417.07 242.286 2422.34 247.29 2432.89 247.29C2437.52 247.29 2441.64 246.539 2445.24 245.038C2444.21 257.546 2439.58 267.303 2431.35 274.307C2423.37 281.062 2413.85 284.439 2402.78 284.439Z" fill="black" fill-opacity="0.1"/>
<path d="M2300.65 284.44C2288.29 284.44 2278.26 280.687 2270.54 273.182C2263.08 265.677 2259.34 254.42 2259.34 239.41C2259.34 233.156 2260.37 225.025 2262.43 215.019L2303.73 27.0187L2360.86 19.5137L2316.47 222.148C2315.44 225.901 2314.93 229.903 2314.93 234.156C2314.93 239.16 2316.09 242.787 2318.4 245.039C2320.98 247.04 2325.09 248.04 2330.75 248.04C2338.22 248.04 2345.17 245.038 2351.6 239.035C2358.03 232.78 2362.66 224.775 2365.5 215.019H2381.71C2372.19 242.037 2359.96 260.424 2345.04 270.18C2330.11 279.687 2315.31 284.44 2300.65 284.44Z" fill="black" fill-opacity="0.1"/>
<path d="M2105.57 284.439C2090.9 284.439 2078.68 279.561 2068.9 269.804C2059.12 260.048 2054.23 244.788 2054.23 224.024C2054.23 205.511 2057.97 186.124 2065.43 165.86C2073.15 145.346 2084.47 128.085 2099.4 114.076C2114.58 99.8162 2132.59 92.6865 2153.44 92.6865C2163.99 92.6865 2171.84 94.4377 2176.98 97.94C2182.13 101.442 2184.7 106.07 2184.7 111.824V114.451L2188.95 94.5628H2244.53L2216.74 222.148C2215.71 225.9 2215.2 229.903 2215.2 234.156C2215.2 244.913 2220.47 250.291 2231.02 250.291C2238.23 250.291 2244.41 247.039 2249.55 240.535C2254.96 234.03 2259.2 225.525 2262.29 215.018H2278.5C2268.98 242.036 2257.14 260.423 2242.99 270.179C2229.09 279.686 2215.07 284.439 2200.92 284.439C2190.11 284.439 2181.36 281.562 2174.67 275.808C2168.23 269.804 2164.37 261.173 2163.09 249.916C2155.62 260.173 2147.26 268.553 2138 275.058C2128.99 281.312 2118.18 284.439 2105.57 284.439ZM2130.66 248.04C2137.1 248.04 2143.4 245.163 2149.58 239.409C2156.01 233.405 2160.39 225.275 2162.7 215.018L2181.23 130.211C2181.23 126.959 2179.94 123.832 2177.37 120.83C2174.8 117.578 2170.81 115.952 2165.4 115.952C2155.11 115.952 2145.85 121.831 2137.61 133.589C2129.38 145.096 2122.94 159.106 2118.31 175.617C2113.68 191.877 2111.36 206.262 2111.36 218.77C2111.36 231.279 2113.16 239.284 2116.77 242.786C2120.63 246.289 2125.26 248.04 2130.66 248.04Z" fill="black" fill-opacity="0.1"/>
<path d="M1856.69 94.5625H1912.27L1907.25 117.828C1916 110.323 1923.85 104.569 1930.8 100.566C1938.01 96.5638 1945.73 94.5625 1953.96 94.5625C1962.2 94.5625 1968.63 97.3143 1973.26 102.818C1978.15 108.322 1980.6 114.951 1980.6 122.706C1980.6 129.961 1978.15 136.34 1973.26 141.844C1968.37 147.348 1961.55 150.099 1952.8 150.099C1947.14 150.099 1943.28 148.849 1941.22 146.347C1939.42 143.595 1938.01 139.717 1936.98 134.714C1936.2 131.462 1935.43 129.085 1934.66 127.584C1933.89 126.083 1932.47 125.333 1930.41 125.333C1925.01 125.333 1920.38 126.459 1916.52 128.71C1912.92 130.712 1908.16 134.339 1902.24 139.592L1871.36 282.187H1815.77L1856.69 94.5625Z" fill="black" fill-opacity="0.1"/>
<path d="M1717.16 283.688C1698.12 283.688 1683.07 278.935 1672 269.429C1660.94 259.923 1655.4 244.913 1655.4 224.399C1655.4 207.388 1659.01 188.5 1666.21 167.736C1673.42 146.973 1685 129.086 1700.95 114.076C1716.91 98.8156 1736.98 91.1855 1761.17 91.1855C1794.11 91.1855 1810.58 111.199 1810.58 151.225V151.601C1811.35 151.851 1812.77 151.976 1814.82 151.976C1823.32 151.976 1833.09 149.85 1844.16 145.597C1855.23 141.094 1865.26 135.715 1874.27 129.461L1877.74 139.593C1870.28 147.348 1860.5 153.977 1848.41 159.481C1836.57 164.734 1823.57 168.487 1809.42 170.738C1807.36 193.504 1802.09 213.392 1793.59 230.403C1785.1 247.414 1774.16 260.548 1760.78 269.804C1747.4 279.06 1732.86 283.688 1717.16 283.688ZM1732.61 249.916C1738.78 249.916 1744.96 246.539 1751.13 239.784C1757.31 232.78 1762.71 223.398 1767.35 211.641C1771.98 199.633 1775.32 186.374 1777.38 171.864C1770.43 170.363 1766.96 165.11 1766.96 156.104C1766.96 145.847 1770.95 139.092 1778.93 135.84C1778.41 127.585 1777.12 121.956 1775.07 118.954C1773.01 115.702 1769.4 114.076 1764.26 114.076C1755.77 114.076 1747.53 120.08 1739.55 132.088C1731.58 144.096 1725.14 158.48 1720.25 175.241C1715.36 192.003 1712.92 206.762 1712.92 219.521C1712.92 231.529 1714.33 239.659 1717.16 243.912C1720 247.915 1725.14 249.916 1732.61 249.916Z" fill="black" fill-opacity="0.1"/>
<path d="M1523.16 376C1511.06 376 1500.51 372.122 1491.51 364.367C1482.24 356.862 1477.61 347.231 1477.61 335.473C1477.61 324.716 1480.44 315.835 1486.1 308.83C1491.76 301.826 1499.1 296.197 1508.1 291.944C1517.11 287.942 1529.08 283.689 1544 279.186L1590.71 64.9183C1595.86 40.9024 1604.86 24.2663 1617.73 15.0102C1630.85 5.75405 1645.26 1.12598 1660.96 1.12598C1673.06 1.12598 1683.61 5.00355 1692.61 12.7587C1701.88 20.2637 1706.51 29.8951 1706.51 41.6529C1706.51 47.4067 1706.12 52.5351 1705.35 57.0381H1687.21C1687.73 51.5345 1687.98 48.1572 1687.98 46.9064C1687.98 42.9037 1686.57 39.7767 1683.74 37.5252C1680.91 35.2737 1677.43 34.1479 1673.31 34.1479C1667.91 34.1479 1662.63 36.5245 1657.49 41.2776C1652.34 45.7806 1648.61 53.6609 1646.29 64.9183L1639.73 94.5631H1667.91L1665.21 109.573H1636.64L1592.25 312.208C1587.11 336.474 1578.23 353.11 1565.62 362.116C1553.01 371.372 1538.86 376 1523.16 376ZM1514.28 342.603C1524.57 342.603 1531.91 332.846 1536.28 313.333L1541.3 291.569C1527.66 296.072 1517.24 301.2 1510.03 306.954C1502.57 312.958 1498.84 320.713 1498.84 330.22C1498.84 333.222 1500.38 335.973 1503.47 338.475C1506.56 341.227 1510.16 342.603 1514.28 342.603Z" fill="black" fill-opacity="0.1"/>
<path d="M1431.72 284.44C1418.08 284.44 1408.17 280.437 1401.99 272.432C1395.82 264.426 1392.73 254.295 1392.73 242.036C1392.73 236.783 1393.37 230.904 1394.66 224.4C1395.95 217.645 1397.23 211.141 1398.52 204.887C1400.06 198.633 1401.09 194.63 1401.61 192.879C1403.67 184.123 1405.6 175.492 1407.4 166.987C1409.2 158.481 1410.1 151.601 1410.1 146.348C1410.1 133.589 1405.47 127.21 1396.2 127.21C1389.51 127.21 1383.59 130.462 1378.45 136.967C1373.3 143.221 1369.18 151.476 1366.09 161.733L1339.85 282.188H1284.26L1325.18 94.5635H1380.76L1376.52 114.076C1389.38 100.067 1404.44 93.0625 1421.68 93.0625C1434.8 93.0625 1445.23 96.5648 1452.95 103.569C1460.67 110.574 1464.53 121.206 1464.53 135.466C1464.53 142.72 1463.62 150.851 1461.82 159.857C1460.02 168.613 1457.45 179.37 1454.1 192.128C1452.04 199.883 1450.11 207.514 1448.31 215.019C1446.77 222.273 1446 228.027 1446 232.28C1446 237.283 1447.16 241.161 1449.47 243.913C1451.79 246.665 1455.78 248.04 1461.44 248.04C1467.61 248.04 1471.86 247.29 1474.18 245.789C1472.63 258.547 1467.87 268.179 1459.89 274.683C1452.17 281.187 1442.78 284.44 1431.72 284.44Z" fill="black" fill-opacity="0.1"/>
<path d="M1185.66 283.688C1166.61 283.688 1151.56 278.935 1140.49 269.429C1129.43 259.923 1123.9 244.913 1123.9 224.399C1123.9 207.388 1127.5 188.5 1134.7 167.736C1141.91 146.973 1153.49 129.086 1169.44 114.076C1185.4 98.8156 1205.47 91.1855 1229.66 91.1855C1262.6 91.1855 1279.07 111.199 1279.07 151.225V151.601C1279.84 151.851 1281.26 151.976 1283.31 151.976C1291.81 151.976 1301.59 149.85 1312.65 145.597C1323.72 141.094 1333.75 135.715 1342.76 129.461L1346.23 139.593C1338.77 147.348 1328.99 153.977 1316.9 159.481C1305.06 164.734 1292.06 168.487 1277.91 170.738C1275.85 193.504 1270.58 213.392 1262.08 230.403C1253.59 247.414 1242.66 260.548 1229.27 269.804C1215.89 279.06 1201.35 283.688 1185.66 283.688ZM1201.1 249.916C1207.27 249.916 1213.45 246.539 1219.62 239.784C1225.8 232.78 1231.2 223.398 1235.84 211.641C1240.47 199.633 1243.81 186.374 1245.87 171.864C1238.92 170.363 1235.45 165.11 1235.45 156.104C1235.45 145.847 1239.44 139.092 1247.42 135.84C1246.9 127.585 1245.61 121.956 1243.56 118.954C1241.5 115.702 1237.89 114.076 1232.75 114.076C1224.26 114.076 1216.02 120.08 1208.04 132.088C1200.07 144.096 1193.63 158.48 1188.74 175.241C1183.85 192.003 1181.41 206.762 1181.41 219.521C1181.41 231.529 1182.82 239.659 1185.66 243.912C1188.49 247.915 1193.63 249.916 1201.1 249.916Z" fill="black" fill-opacity="0.1"/>
<path d="M1090.85 74.2994C1082.36 74.2994 1075.16 71.4225 1069.24 65.6687C1063.32 59.9149 1060.36 52.9102 1060.36 44.6547C1060.36 36.3992 1063.32 29.3946 1069.24 23.6408C1075.16 17.6368 1082.36 14.6348 1090.85 14.6348C1099.35 14.6348 1106.55 17.6368 1112.47 23.6408C1118.65 29.3946 1121.73 36.3992 1121.73 44.6547C1121.73 52.9102 1118.65 59.9149 1112.47 65.6687C1106.55 71.4225 1099.35 74.2994 1090.85 74.2994ZM1064.6 284.439C1052.25 284.439 1042.22 280.687 1034.5 273.182C1027.03 265.677 1023.3 254.419 1023.3 239.409C1023.3 233.155 1024.33 225.025 1026.39 215.018L1052.64 94.5629H1108.22L1080.43 222.148C1079.4 225.9 1078.89 229.903 1078.89 234.156C1078.89 239.159 1080.04 242.786 1082.36 245.038C1084.93 247.039 1089.05 248.04 1094.71 248.04C1102.18 248.04 1109.12 245.038 1115.56 239.034C1121.99 232.78 1126.62 224.774 1129.45 215.018H1145.67C1136.14 242.036 1123.92 260.423 1109 270.18C1094.07 279.686 1079.27 284.439 1064.6 284.439Z" fill="black" fill-opacity="0.1"/>
<path d="M961.695 284.439C949.343 284.439 939.307 280.686 931.587 273.182C924.124 265.677 920.393 254.419 920.393 239.409C920.393 233.155 921.422 225.025 923.481 215.018L946.641 109.573H933.903L936.991 94.5628H949.729L961.309 42.7784L1018.44 35.2734L1005.31 94.5628H1028.47L1025.39 109.573H1002.23L977.522 222.148C976.492 225.9 975.978 229.903 975.978 234.156C975.978 239.159 977.136 242.786 979.452 245.038C982.025 247.039 986.142 248.04 991.804 248.04C999.267 248.04 1006.21 245.038 1012.65 239.034C1019.08 232.78 1023.71 224.774 1026.54 215.018H1042.76C1033.23 242.036 1021.01 260.423 1006.09 270.18C991.16 279.686 976.364 284.439 961.695 284.439Z" fill="black" fill-opacity="0.1"/>
<path d="M766.622 284.439C751.954 284.439 739.73 279.561 729.951 269.804C720.173 260.048 715.283 244.788 715.283 224.024C715.283 205.511 719.015 186.124 726.477 165.86C734.197 145.346 745.52 128.085 760.446 114.076C775.628 99.8162 793.642 92.6865 814.486 92.6865C825.037 92.6865 832.886 94.4377 838.032 97.94C843.179 101.442 845.753 106.07 845.753 111.824V114.451L849.999 94.5628H905.583L877.791 222.148C876.762 225.9 876.247 229.903 876.247 234.156C876.247 244.913 881.522 250.291 892.073 250.291C899.278 250.291 905.455 247.039 910.601 240.535C916.005 234.03 920.251 225.525 923.339 215.018H939.551C930.03 242.036 918.193 260.423 904.039 270.179C890.143 279.686 876.118 284.439 861.965 284.439C851.157 284.439 842.407 281.562 835.716 275.808C829.283 269.804 825.423 261.173 824.136 249.916C816.674 260.173 808.31 268.553 799.046 275.058C790.039 281.312 779.231 284.439 766.622 284.439ZM791.712 248.04C798.145 248.04 804.45 245.163 810.626 239.409C817.06 233.405 821.434 225.275 823.75 215.018L842.279 130.211C842.279 126.959 840.992 123.832 838.418 120.83C835.845 117.578 831.856 115.952 826.452 115.952C816.159 115.952 806.895 121.831 798.66 133.589C790.425 145.096 783.992 159.106 779.36 175.617C774.728 191.877 772.412 206.262 772.412 218.77C772.412 231.279 774.213 239.284 777.816 242.786C781.676 246.289 786.308 248.04 791.712 248.04Z" fill="black" fill-opacity="0.1"/>
<path d="M627.356 284.439C608.313 284.439 593.516 279.686 582.965 270.179C572.415 260.423 567.139 245.288 567.139 224.774C567.139 207.513 570.613 188.5 577.561 167.736C584.767 146.973 596.089 129.086 611.53 114.076C627.227 98.8156 647.042 91.1855 670.974 91.1855C686.414 91.1855 697.351 94.4377 703.785 100.942C710.475 107.446 713.821 115.702 713.821 125.708C713.821 134.464 711.891 141.219 708.031 145.972C704.171 150.725 699.281 153.102 693.362 153.102C688.988 153.102 684.484 151.601 679.852 148.599C682.94 140.343 684.484 132.963 684.484 126.459C684.484 121.706 683.584 117.953 681.782 115.201C679.981 112.45 677.279 111.074 673.676 111.074C665.956 111.074 658.236 117.203 650.516 129.461C642.796 141.719 636.491 156.604 631.602 174.116C626.712 191.627 624.268 207.388 624.268 221.397C624.268 233.655 626.455 242.036 630.83 246.539C635.205 250.792 642.281 252.918 652.06 252.918C665.956 252.918 677.794 249.791 687.572 243.537C697.608 237.283 708.545 227.776 720.383 215.018H733.507C704.943 261.299 669.559 284.439 627.356 284.439Z" fill="black" fill-opacity="0.1"/>
<path d="M415.485 284.439C403.133 284.439 393.097 280.686 385.377 273.181C377.914 265.676 374.183 254.419 374.183 239.409C374.183 233.155 375.212 225.024 377.271 215.018L403.519 94.5625H459.103L431.311 222.147C430.539 225.9 430.153 229.402 430.153 232.654C430.153 242.911 434.013 248.039 441.733 248.039C448.939 248.039 455.115 245.163 460.261 239.409C465.408 233.405 469.526 225.274 472.614 215.018L498.862 94.5625H554.446L526.654 222.147C525.625 225.9 525.11 229.902 525.11 234.155C525.11 239.159 526.268 242.786 528.584 245.037C531.158 247.039 535.275 248.039 540.936 248.039C548.142 248.039 554.318 245.037 559.465 239.033C564.869 233.029 569.115 225.024 572.203 215.018H588.415C578.893 242.035 567.056 260.423 552.902 270.179C539.006 279.685 524.982 284.439 510.828 284.439C499.763 284.439 490.884 281.437 484.194 275.433C477.76 269.429 473.9 260.548 472.614 248.79C463.864 262.549 454.6 271.93 444.821 276.934C435.3 281.937 425.521 284.439 415.485 284.439Z" fill="black" fill-opacity="0.1"/>
<path d="M220.788 284.44C206.12 284.44 193.896 279.561 184.117 269.805C174.339 260.048 169.449 244.788 169.449 224.025C169.449 205.512 173.181 186.124 180.643 165.861C188.363 145.347 199.686 128.086 214.612 114.077C229.794 99.817 247.808 92.6873 268.652 92.6873C279.203 92.6873 287.052 94.4385 292.198 97.9408C297.345 101.443 299.919 106.071 299.919 111.825V113.326L318.833 27.0187L375.961 19.5137L331.571 222.148C330.542 225.901 330.027 229.903 330.027 234.156C330.027 239.16 331.185 242.787 333.501 245.039C336.074 247.04 340.192 248.04 345.853 248.04C353.058 248.04 359.235 245.038 364.381 239.035C369.785 233.031 374.031 225.025 377.119 215.019H393.331C377.634 259.798 351.772 282.188 315.745 282.188C305.194 282.188 296.573 279.436 289.882 273.933C283.449 268.429 279.46 260.424 277.916 249.917C271.226 259.923 263.12 268.179 253.598 274.683C244.334 281.188 233.397 284.44 220.788 284.44ZM245.878 248.04C252.054 248.04 258.23 245.289 264.406 239.785C270.84 234.281 275.214 226.651 277.53 216.895V215.019L296.445 129.086C294.128 120.331 288.853 115.953 280.618 115.953C270.325 115.953 261.061 121.832 252.826 133.589C244.591 145.097 238.158 159.106 233.526 175.617C228.894 191.878 226.578 206.263 226.578 218.771C226.578 231.279 228.379 239.285 231.982 242.787C235.842 246.289 240.474 248.04 245.878 248.04Z" fill="black" fill-opacity="0.1"/>
<path d="M71.0247 288.942C47.6071 288.942 29.851 282.688 17.7562 270.18C5.91873 257.671 0 241.911 0 222.898C0 209.389 2.8307 195.88 8.49209 182.371C14.4108 168.612 22.7742 156.604 33.5823 146.347C44.3905 136.09 56.9999 129.211 71.4107 125.709C63.4333 120.205 57.5146 113.575 53.6546 105.82C49.7945 97.815 47.8645 89.4344 47.8645 80.6786C47.8645 67.67 51.4672 54.9115 58.6726 42.4032C66.1353 29.8949 76.3001 19.7631 89.1669 12.008C102.291 4.00266 116.702 0 132.399 0C148.612 0 161.864 4.12774 172.158 12.3832C182.451 20.6387 187.598 32.1463 187.598 46.9062C187.598 57.9135 184.767 67.1696 179.106 74.6746C173.444 82.1796 166.754 85.9321 159.034 85.9321C152.086 85.9321 146.038 82.5549 140.891 75.8004C145.523 74.2994 149.512 70.1716 152.858 63.4171C156.203 56.6627 157.876 49.9082 157.876 43.1537C157.876 35.8989 155.817 30.6454 151.7 27.3932C147.582 23.8909 142.564 22.1397 136.645 22.1397C129.183 22.1397 122.363 24.7665 116.187 30.0199C110.268 35.0233 105.636 41.6527 102.291 49.9082C98.9457 57.9135 97.273 66.294 97.273 75.0498C97.273 87.0578 100.49 97.6899 106.923 106.946C113.356 115.952 123.135 122.081 136.259 125.333C123.135 128.085 111.298 134.339 100.747 144.096C90.1963 153.852 81.9615 165.235 76.0428 178.243C70.124 191.002 67.1647 203.26 67.1647 215.018C67.1647 226.275 70.124 235.406 76.0428 242.411C82.2188 249.416 91.4829 252.918 103.835 252.918C116.702 252.918 130.083 249.541 143.979 242.786C158.133 235.782 168.555 226.4 175.246 214.643L184.124 218.395C174.088 239.909 158.648 257.046 137.803 269.804C116.959 282.563 94.6996 288.942 71.0247 288.942Z" fill="black" fill-opacity="0.1"/>
</svg>
