<svg width="2463" height="377" viewBox="0 0 2463 377" fill="none" xmlns="http://www.w3.org/2000/svg">
<path d="M2436 7.5L2388.5 213C2369 285 2434 297.5 2459 257" stroke="black"/>
<path d="M2337.5 6L2287 234.502C2283 287 2359.5 267.5 2369.5 227" stroke="black"/>
<path d="M2185.59 154.502C2185.59 131.501 2157.09 75.0031 2113.59 126.004C2077.87 172.75 2072.59 221 2088.59 248.5C2107.59 276.5 2149.09 275.5 2179.09 221.5L2220.59 91L2191.09 229.5C2187.59 264.997 2249.09 281.499 2268.09 229.5" stroke="black"/>
<path d="M1883.5 86.5L1839 291.5C1850.73 243.356 1863.47 204.889 1883.5 160.5C1909.44 103 1963 119 1963 165" stroke="black"/>
<path d="M1794.41 133.57C1794.41 94.0694 1737.41 91.5698 1710.91 133.57C1685.99 173.069 1672.91 238.569 1692.41 259.569C1715.16 284.069 1760.41 271.069 1774.91 241.069C1792.07 205.569 1815.41 138.569 1794.41 141.069C1773.41 143.569 1767.41 166.069 1789.41 166.069C1824.78 167.799 1853.91 157.069 1872.91 141.069" stroke="black"/>
<path d="M1695 74.5002C1721.5 35.9994 1652.5 -58.5 1618.5 56.0006L1609.5 103M1549.5 279.5C1530.5 277 1496.08 302.647 1491.64 325.019C1480.84 379.353 1558.19 367.448 1562.64 334.5L1609.5 103M1609.5 103H1670" stroke="black"/>
<path d="M1359 78.5L1305 303C1325.41 215.636 1364.5 139.022 1384.5 122.5C1419 93.999 1448.67 102.142 1433 167.5L1416.5 230.5C1406 270.5 1469.5 280.498 1496.5 249.5" stroke="black"/>
<path d="M1257.5 128.5C1257.5 88.9999 1193 96.0027 1166.5 138.003C1141.58 177.502 1139 237 1158.5 258C1181.25 282.5 1226.5 269.5 1241 239.5C1258.16 204 1283 135.503 1262 138.003C1241 140.503 1235.5 163 1257.5 163C1292.87 164.73 1319 156.5 1338 140.5" stroke="black"/>
<path d="M1080.5 81.4998L1043 239.002C1036.4 298.034 1107 279 1135 225M1088.5 67.5L1098 25" stroke="black"/>
<path d="M989 22L968.5 104.5M1033 226.5C993.5 294 935.5 263 940.001 229.002L968.5 104.5M968.5 104.5H914.5M968.5 104.5H1029.5" stroke="black"/>
<path d="M843 154.502C843 131.501 814.5 75.0031 771 126.004C735.283 172.75 730 221 746 248.5C765 276.5 806.5 275.5 836.5 221.5L878 91L848.5 229.5C845 264.997 906.5 281.499 925.5 229.5" stroke="black"/>
<path d="M689.5 163.5C729.5 118.5 662.957 51.994 618.5 121C594.022 158.995 577.502 246.5 615.5 265.5C638 276.751 685 264.502 710 232.002" stroke="black"/>
<path d="M432 75L398 229.5C393.001 274.5 426.608 285.002 450 261.502C483.5 224.002 506.5 169.5 526.5 80.5L493.5 236.5C490 273 532.846 274.478 547 261.502C559 250.5 563.5 244.5 574 229.5" stroke="black"/>
<path d="M305 132.502C298.5 96.5 251.5 95.6665 232 122C199.787 165.5 181.498 249.001 211.5 265.002C241.502 281.003 281.5 244.002 293 212.002L356 4L299 245C299 268.5 332.5 284 362.5 254.5L378 232.5" stroke="black"/>
<path d="M155 96.0006C212.5 34.0001 143 -4.00054 104 22.0001C71.5003 43.6673 64.5021 78.0008 98.0002 124C64.0004 147 12.9999 220.5 49 258C72.5001 282.479 105 274 121.5 268.5C132.291 264.904 158.001 245.001 165.001 232.001" stroke="black"/>
</svg>
